HIERARCHY
ROOT Hips
{
  OFFSET -331.093 83.8371 -317.828
  CHANNELS 6 Xposition Yposition Zposition Zrotation Xrotation Yrotation
  JOINT LeftUpLeg
  {
    OFFSET 8.64259 1.95398 -2.38835
    CHANNELS 3 Zrotation Xrotation Yrotation
    JOINT LeftLeg
    {
      OFFSET 43.7702 0 0
      CHANNELS 3 Zrotation Xrotation Yrotation
      JOINT LeftFoot
      {
        OFFSET 40.6238 0 0
        CHANNELS 3 Zrotation Xrotation Yrotation
        JOINT LeftToeBase
        {
          OFFSET 12.7242 0 0
          CHANNELS 3 Zrotation Xrotation Yrotation
          End Site
          {
            OFFSET 0 0 0
          }
        }
      }
    }
  }
  JOINT RightUpLeg
  {
    OFFSET -8.2249 1.95398 -2.59336
    CHANNELS 3 Zrotation Xrotation Yrotation
    JOINT RightLeg
    {
      OFFSET 43.5653 0 0
      CHANNELS 3 Zrotation Xrotation Yrotation
      JOINT RightFoot
      {
        OFFSET 40.6238 0 0
        CHANNELS 3 Zrotation Xrotation Yrotation
        JOINT RightToeBase
        {
          OFFSET 12.7242 0 0
          CHANNELS 3 Zrotation Xrotation Yrotation
          End Site
          {
            OFFSET 0 0 0
          }
        }
      }
    }
  }
  JOINT Spine
  {
    OFFSET 0.165834 0.87714 6.61349
    CHANNELS 3 Zrotation Xrotation Yrotation
    JOINT Spine1
    {
      OFFSET 7.38963 1.71661e-005 0
      CHANNELS 3 Zrotation Xrotation Yrotation
      JOINT Spine2
      {
        OFFSET 11.9445 1.14441e-005 0
        CHANNELS 3 Zrotation Xrotation Yrotation
        JOINT Spine3
        {
          OFFSET 14.7254 4.19617e-005 0
          CHANNELS 3 Zrotation Xrotation Yrotation
          JOINT Spine4
          {
            OFFSET 10.9679 0 0
            CHANNELS 3 Zrotation Xrotation Yrotation
            JOINT RightShoulder
            {
              OFFSET 2.46616 -1.6653 3.69651
              CHANNELS 3 Zrotation Xrotation Yrotation
              JOINT RightArm
              {
                OFFSET 13.0012 0 0
                CHANNELS 3 Zrotation Xrotation Yrotation
                JOINT RightForeArm
                {
                  OFFSET 28.7848 1.62311e-005 0
                  CHANNELS 3 Zrotation Xrotation Yrotation
                  JOINT RightHand
                  {
                    OFFSET 26.5688 1.62095e-005 0
                    CHANNELS 3 Zrotation Xrotation Yrotation
                    End Site
                    {
                      OFFSET 0 0 0
                    }
                  }
                }
              }
            }
            JOINT LeftShoulder
            {
              OFFSET 2.38034 -1.29275 -3.7523
              CHANNELS 3 Zrotation Xrotation Yrotation
              JOINT LeftArm
              {
                OFFSET 16.3182 6.07031e-005 0
                CHANNELS 3 Zrotation Xrotation Yrotation
                JOINT LeftForeArm
                {
                  OFFSET 27.0901 0 0
                  CHANNELS 3 Zrotation Xrotation Yrotation
                  JOINT LeftHand
                  {
                    OFFSET 24.5451 1.51738e-005 0
                    CHANNELS 3 Zrotation Xrotation Yrotation
                    End Site
                    {
                      OFFSET 0 0 0
                    }
                  }
                }
              }
            }
            JOINT Neck
            {
              OFFSET 5.0226 -0.0266342 0
              CHANNELS 3 Zrotation Xrotation Yrotation
              JOINT Head
              {
                OFFSET 6.69364 2.86102e-005 0
                CHANNELS 3 Zrotation Xrotation Yrotation
                End Site
                {
                  OFFSET 0 0 0
                }
              }
            }
          }
        }
      }
    }
  }
}
MOTION
Frames:	10
Frame Time:	0.0416667
-128.589 53.8531 -130.787 92.5319 2.08309 107.579 165.765 34.4929 106.427 -127.163 36.9302 3.30549 48.5362 -6.50579 4.14422 29.3622 46.3713 76.4347 109.35 69.0441 144.917 -108.441 10.8709 -2.88475 77.616 -6.10041 -4.29234 35.7357 -0.406244 -1.57741 0.860546 12.3008 -93.6243 2.22344 0.313736 -7.06964 -9.46674 0.00307081 -7.07657 -31.8609 2.41924 -6.65216 -11.8482 2.41923 -6.65219 92.2063 -31.5966 -101.521 -0.0643879 5.91267 -6.77692 -13.8175 -9.06392 -48.5347 -21.2801 -1.41253 2.58222 -92.3793 -42.2104 73.5197 -32.4173 6.91706 18.3973 14.1407 10.1711 -52.8941 11.8674 0.598569 1.14255 -13.1539 -24.5109 -7.36451 25.1909 -27.3077 -15.7166 
-128.594 53.8135 -130.854 92.421 2.15191 107.541 165.539 34.5439 106.485 -127.052 36.6659 3.31271 48.952 -6.72852 2.65826 27.9636 45.5277 78.5934 109.188 69.2475 144.952 -108.484 10.1864 -2.93541 77.2284 -5.98072 -4.22989 36.386 -0.689116 -2.98712 0.866052 12.3028 -93.6188 2.22379 0.326686 -7.0564 -9.46627 0.0166089 -7.06391 -31.8617 2.42764 -6.63566 -11.8491 2.42768 -6.63564 92.3029 -32.008 -101.208 -0.322427 5.55736 -6.81401 -13.6493 -9.20567 -48.7468 -21.3641 -1.44988 2.76514 -92.8615 -42.5875 72.86 -31.7268 7.06953 18.8745 13.0684 9.2289 -52.9206 14.2654 0.967428 2.87194 -13.3816 -24.3417 -7.27204 25.6713 -27.164 -15.444 
-128.548 53.8061 -130.939 92.1149 2.59967 107.338 165.543 35.1634 105.946 -127.374 36.3574 3.27397 48.9974 -5.94173 4.52995 29.7019 47.6828 76.5568 108.484 69.4739 145.082 -108.603 9.92868 -3.04268 77.3784 -6.03807 -4.25569 36.4878 -0.696649 -2.99968 0.817433 12.2872 -93.6173 2.25189 0.229378 -7.05585 -9.43817 -0.0805887 -7.0591 -31.8324 2.33461 -6.6642 -11.8198 2.33462 -6.6642 92.315 -31.9374 -101.207 0.012528 5.6397 -6.60288 -13.6701 -8.97788 -48.9863 -20.5108 -1.38211 2.70128 -92.8001 -42.4615 72.9199 -31.5559 6.62087 18.933 12.6025 9.04039 -52.4792 13.4365 0.971253 3.2722 -12.9922 -24.2343 -6.81941 25.4312 -27.0536 -15.6007 
-128.507 53.7322 -130.986 91.7428 3.40863 107.111 164.778 35.6942 105.641 -127.559 35.9324 3.26128 49.147 -6.00305 3.92382 33.3738 55.9472 74.8105 107.164 69.5984 145.428 -108.843 9.95699 -3.20002 77.8337 -6.19685 -4.34311 35.9043 -0.689018 -3.10472 0.749927 12.2489 -93.6424 2.323 0.0825654 -7.10885 -9.36735 -0.229593 -7.10564 -31.7577 2.2103 -6.75866 -11.7451 2.21032 -6.75867 92.319 -31.8501 -101.225 0.313768 5.54041 -6.22522 -14.2619 -9.28637 -49.409 -20.7435 -1.41103 2.77817 -92.9373 -42.567 72.7326 -31.3821 6.57297 19.1525 12.6262 9.22579 -52.2221 13.2599 0.929824 3.05194 -13.2801 -24.2825 -6.98656 25.8712 -27.1974 -15.7544 
-128.416 53.6951 -131.063 91.3964 4.22095 106.788 164.447 36.1897 105.044 -127.709 35.8213 3.26274 49.3326 -5.52475 4.8014 27.6792 45.1484 78.9342 106.133 69.7739 145.359 -109.082 9.78664 -3.38199 78.1778 -6.29175 -4.40354 35.7466 -0.601931 -2.66014 0.672858 12.2325 -93.6569 2.35046 -0.0777492 -7.14047 -9.34 -0.391114 -7.13023 -31.7273 2.06677 -6.83675 -11.7147 2.06676 -6.83675 92.2684 -31.8459 -101.324 0.455565 5.66708 -6.44458 -13.8389 -8.98961 -48.4224 -20.7842 -1.37426 2.54562 -92.7085 -42.248 73.0017 -31.9115 6.52868 19.22 12.6314 9.34792 -51.9919 12.2953 0.883841 3.18994 -12.9591 -24.3299 -7.10642 25.6375 -27.1739 -15.7032 
-128.417 53.5102 -131.152 90.9659 5.10685 106.471 164.002 36.598 104.506 -127.86 35.5913 3.23884 49.5694 -5.26329 4.97759 29.0957 52.0009 79.8421 103.954 70.0201 146.126 -109.442 9.37959 -3.61184 78.2192 -6.25892 -4.4276 36.4233 -0.741394 -3.25705 0.597351 12.2078 -93.6643 2.39467 -0.232802 -7.15823 -9.29583 -0.546812 -7.14121 -31.6808 1.92405 -6.90001 -11.6682 1.92405 -6.90001 92.28 -32.1283 -101.217 0.312318 5.58846 -6.21279 -14.3927 -9.35089 -49.2526 -21.0715 -1.45442 2.90622 -92.5162 -42.1316 73.2756 -32.0925 6.67837 19.405 12.8021 9.45814 -52.1012 11.7261 0.74247 2.37515 -12.529 -24.5223 -7.22503 25.665 -27.2642 -15.4458 
-128.282 53.3449 -131.175 90.5896 6.08697 106.159 163.275 36.822 104.114 -127.923 35.3336 3.24325 49.7609 -5.20199 4.70989 27.1428 48.6935 81.7041 102.137 70.1276 146.535 -109.915 9.11758 -3.85324 78.6187 -6.42192 -4.52583 36.6051 -0.714325 -3.06581 0.491955 12.171 -93.6801 2.46104 -0.451369 -7.19361 -9.22956 -0.766761 -7.16701 -31.6111 1.72598 -6.99903 -11.5985 1.72599 -6.99903 92.2975 -32.2186 -101.156 0.301729 5.77671 -6.48089 -14.0945 -9.48172 -48.7999 -20.8052 -1.34485 2.37137 -92.421 -42.386 73.5051 -32.0291 7.10347 20.0896 12.879 9.25996 -52.6783 11.0593 0.744784 2.72747 -12.5604 -24.6276 -7.10027 25.9853 -27.3836 -15.3319 
-128.23 53.1932 -131.322 90.1164 7.20611 105.721 162.491 37.397 103.4 -128.103 34.6238 3.20086 49.6943 -5.23493 4.38515 28.0261 48.6921 80.1064 99.5074 70.3998 147.299 -110.404 8.78753 -4.10451 78.9804 -6.48642 -4.60138 36.3768 -0.630373 -2.66836 0.387298 12.147 -93.6793 2.50231 -0.66143 -7.19581 -9.18817 -0.976662 -7.16003 -31.568 1.52617 -7.06381 -11.5554 1.52616 -7.06381 92.2796 -32.2854 -101.17 0.135188 5.60728 -6.27916 -14.0736 -9.29109 -49.0956 -20.777 -1.48177 3.18231 -92.0812 -42.3779 74.0488 -32.2326 6.83406 20.6836 13.4062 9.50025 -53.137 11.7097 0.764387 2.54148 -12.3686 -25.0059 -7.20171 25.6513 -27.8046 -15.8836 
-128.134 53.0452 -131.387 89.5274 8.26838 105.401 161.59 38.0148 103.007 -128.191 33.7331 3.16715 49.6956 -5.22857 3.96502 28.0389 49.2629 80.3628 96.6267 70.416 148.224 -110.962 8.13221 -4.3239 79.7187 -6.80679 -4.7592 36.066 -0.612979 -2.64772 0.294096 12.1023 -93.7137 2.58397 -0.863658 -7.26657 -9.10673 -1.18177 -7.22189 -31.4822 1.35424 -7.1917 -11.4695 1.35426 -7.19171 92.277 -32.2754 -101.178 -0.262028 5.37423 -6.19683 -13.5461 -8.94473 -49.1413 -21.1557 -1.50176 3.14679 -91.9698 -42.4778 74.2567 -32.3512 6.02918 21.0129 13.1446 9.59235 -52.5873 12.2863 0.79035 2.47054 -12.5134 -25.1784 -7.01207 25.8298 -28.0035 -15.849 
-128.019 52.8799 -131.371 89.1756 9.52832 104.943 160.709 38.4501 102.415 -128.24 33.7164 3.16468 48.6723 -5.84466 4.14463 28.9777 52.123 80.0957 93.9264 70.5257 148.821 -111.511 7.74677 -4.51572 80.0715 -6.9702 -4.85394 36.1191 -0.579222 -2.45268 0.191963 12.0574 -93.7149 2.66709 -1.07077 -7.27193 -9.02341 -1.38893 -7.21821 -31.3975 1.15815 -7.25859 -11.3849 1.15817 -7.25859 92.2548 -32.6559 -101.107 -0.294272 5.69848 -6.05726 -13.5633 -8.7822 -49.4938 -21.4372 -1.55014 3.30913 -91.7109 -42.5466 74.6926 -32.1316 6.12457 21.3308 13.2098 9.91158 -52.2731 12.5687 0.852253 2.81425 -12.7016 -25.2141 -6.88818 25.4106 -28.1548 -16.5276 
